# xmcd
# 
# Track frame offsets:
#     150
#     18618
#     37094
#     68766
#     88340
#     110038
#     125735
#     154434
#     176056
#     199043
#     218155
#     237151
# 
# Disc length: 3497
# 
# Revision: 5
# Processed by: cddbd v1.5.2PL0 Copyright (c) Steve Scherf et al.
# Submitted via: BonkEnc v1.0.15
# 
DISCID=b60da70c
DTITLE=adoração - Geração de Adoradores
DYEAR=2005
DGENRE=Gospel
TTITLE0=Deus cuida de Mim - Kleber Lucas
TTITLE1=Aos Pés da Cruz - Kleber Lucas
TTITLE2=Apenas um Toque - Fernanda Brum
TTITLE3=Espírito Santo - Fernanda Brum
TTITLE4=Voar Como Águia - Alda Célia
TTITLE5=Óleo De Alegria - Alda Célia
TTITLE6=Sonda-Me, Usa-Me Aline Barros
TTITLE7=Águas do Trono - Aline Barros
TTITLE8=Com Muito Louvor - Cassiane
TTITLE9=Oferta Agradável a Ti  - Cassiane
TTITLE10=Na Casa de Deus - Eyshila
TTITLE11=Deus Proverá - Eyshila
EXTD=
EXTT0=
EXTT1=
EXTT2=
EXTT3=
EXTT4=
EXTT5=
EXTT6=
EXTT7=
EXTT8=
EXTT9=
EXTT10=
EXTT11=
PLAYORDER=
